<?xml version="1.0" standalone="no"?>
<!DOCTYPE svg PUBLIC "-//W3C//DTD SVG 20010904//EN"
 "http://www.w3.org/TR/2001/REC-SVG-20010904/DTD/svg10.dtd">
<svg version="1.0" xmlns="http://www.w3.org/2000/svg"
 width="340.000000pt" height="340.000000pt" viewBox="0 0 340.000000 340.000000"
 preserveAspectRatio="xMidYMid meet">
<metadata>
Created by potrace 1.11, written by Peter Selinger 2001-2013
</metadata>
<g transform="translate(0.000000,340.000000) scale(0.100000,-0.100000)"
fill="#000000" stroke="none">
<path d="M1707 2964 c-3 -4 -2 -15 3 -25 7 -11 7 -20 0 -24 -8 -5 -8 -33 0
-55 5 -12 -2 -56 -10 -64 -4 -4 -4 -20 1 -35 14 -41 17 -105 7 -118 -6 -8 -7
-24 -2 -40 11 -38 14 -73 13 -178 -1 -274 5 -522 14 -531 4 -4 10 -5 13 -1 5
5 16 283 14 347 -1 36 -2 157 -2 175 1 11 1 56 2 100 0 44 0 94 1 110 0 17 0
46 0 66 -1 20 3 47 7 60 6 14 4 39 -4 66 -7 24 -9 45 -4 48 5 3 8 27 6 53 -2
42 -5 47 -27 50 -14 2 -28 0 -32 -4z"/>
<path d="M1332 2882 c-23 -18 -23 -18 -4 -42 35 -48 68 -138 77 -213 2 -16 10
-36 19 -46 9 -10 16 -22 16 -27 0 -9 69 -216 168 -508 64 -187 102 -234 49
-61 -8 28 -29 97 -45 155 -29 103 -45 154 -103 335 -16 50 -31 104 -33 120 -2
17 -20 73 -39 126 -18 53 -34 111 -35 129 -1 50 -30 63 -70 32z"/>
<path d="M2099 2848 c-6 -24 -49 -158 -95 -298 -229 -698 -220 -670 -202 -670
10 1 135 343 153 420 2 8 9 29 15 45 6 17 13 37 15 45 8 32 55 161 109 297 59
148 67 187 40 197 -23 9 -22 10 -35 -36z"/>
<path d="M995 2716 c-18 -13 -16 -16 26 -73 24 -33 51 -71 61 -84 29 -43 336
-451 355 -474 5 -5 44 -57 88 -115 43 -58 79 -107 81 -109 1 -1 7 0 13 4 9 5
-9 46 -29 65 -17 16 -90 121 -90 129 0 5 -4 11 -9 13 -8 3 -138 183 -215 298
-16 25 -35 48 -40 52 -6 4 -7 8 -2 8 4 0 -8 20 -28 44 -20 24 -36 49 -36 55 0
6 -4 11 -10 11 -5 0 -12 11 -16 25 -3 14 -10 25 -15 25 -5 0 -32 32 -60 70
-28 39 -52 70 -53 70 -1 0 -11 -6 -21 -14z"/>
<path d="M2412 2680 c-13 -28 -29 -56 -35 -63 -7 -6 -30 -39 -52 -72 -22 -33
-48 -70 -59 -82 -11 -13 -17 -23 -13 -23 5 0 -164 -241 -201 -285 -45 -56
-211 -299 -206 -304 3 -3 17 8 30 24 24 29 306 400 506 666 54 71 102 129 108
129 18 0 10 29 -10 35 -11 3 -20 11 -20 16 0 26 -28 2 -48 -41z"/>
<path d="M718 2443 c-36 -9 -31 -68 7 -77 32 -8 204 -111 247 -147 18 -16 37
-29 42 -29 6 0 19 -8 30 -18 12 -11 59 -45 106 -77 47 -32 117 -81 155 -108
39 -27 95 -65 125 -85 30 -19 57 -38 60 -42 3 -3 22 -16 43 -29 62 -38 42 -5
-30 48 -38 28 -73 55 -80 61 -7 6 -74 54 -150 109 -379 270 -382 273 -493 369
-21 17 -39 31 -41 31 -2 -1 -11 -3 -21 -6z"/>
<path d="M2674 2406 c-23 -24 -92 -81 -155 -128 -110 -82 -381 -283 -541 -402
-43 -31 -78 -61 -78 -66 0 -9 28 3 54 23 15 11 180 129 203 145 10 7 101 72
203 144 102 73 235 162 295 199 109 66 128 86 105 114 -20 24 -42 16 -86 -29z"/>
<path d="M537 2081 c-42 -46 -30 -99 29 -120 39 -14 64 -6 38 13 -27 20 1 30
30 11 14 -9 44 -18 68 -20 51 -4 105 -20 124 -36 8 -6 25 -8 39 -5 16 4 102
-16 252 -60 126 -36 235 -67 243 -69 8 -2 44 -13 80 -24 72 -23 90 -25 90 -12
0 9 -290 111 -316 111 -8 0 -22 4 -32 9 -9 6 -81 31 -159 56 -84 27 -143 52
-143 59 0 9 -18 13 -53 15 -101 3 -159 21 -208 65 -21 20 -42 36 -47 36 -4 0
-19 -13 -35 -29z"/>
<path d="M2875 2063 c-11 -2 -62 -18 -114 -34 -52 -17 -109 -31 -127 -32 -17
-1 -30 -5 -28 -9 5 -7 -178 -68 -203 -68 -8 0 -58 -18 -111 -39 -85 -35 -207
-79 -237 -85 -38 -9 -125 -38 -125 -43 0 -7 100 6 114 14 11 8 13 8 58 18 16
3 72 21 127 41 54 19 107 36 117 39 96 19 205 49 241 65 24 10 69 22 100 26
31 3 82 15 112 25 31 11 56 19 56 18 0 -1 24 4 53 11 40 9 52 16 48 27 -3 8
-6 19 -6 24 0 9 -39 10 -75 2z"/>
<path d="M1657 1808 c-22 -13 -45 -38 -57 -64 l-20 -41 -550 0 c-439 0 -555
-2 -575 -13 -65 -35 -38 -36 572 -36 l596 1 11 37 c21 71 66 99 129 81 36 -10
78 -64 72 -93 -2 -11 -1 -21 3 -21 31 -6 1194 -3 1198 3 3 4 -7 15 -21 24 -24
16 -75 17 -577 17 l-551 -1 -21 41 c-28 54 -64 79 -123 84 -37 3 -57 -1 -86
-19z"/>
<path d="M3128 1515 c-128 -32 -195 -157 -154 -283 20 -59 55 -98 111 -123 50
-23 182 -21 238 4 37 16 37 16 37 75 0 46 5 66 22 88 13 15 17 25 11 21 -6 -4
-14 -3 -17 2 -4 5 -2 12 4 16 5 3 10 11 10 16 0 13 -177 10 -207 -4 -28 -13
-29 -38 -3 -62 19 -17 20 -17 28 5 7 18 17 24 43 25 l35 2 -3 -71 c-2 -38 -7
-74 -12 -79 -16 -16 -104 -11 -139 7 -89 47 -114 179 -49 268 32 44 76 61 141
56 47 -4 62 -10 91 -38 19 -19 36 -32 38 -29 4 5 27 84 27 92 0 4 -10 3 -22
-2 -13 -5 -37 -2 -62 7 -54 19 -111 22 -168 7z"/>
<path d="M5 1512 c-3 -3 -1 -10 4 -16 5 -6 21 -33 36 -60 21 -38 24 -48 11
-43 -14 6 -15 3 -5 -16 7 -12 25 -41 40 -64 31 -44 36 -59 18 -47 -17 10 -3
-27 45 -117 36 -66 45 -77 55 -65 11 13 40 99 86 254 10 34 21 62 25 62 3 0
32 -71 65 -157 33 -87 65 -158 70 -158 6 0 38 83 72 185 35 102 67 194 71 205
5 11 11 25 13 30 2 6 -15 10 -39 11 -37 1 -42 -1 -36 -18 3 -10 -11 -69 -32
-131 l-37 -112 -15 35 c-54 130 -79 201 -71 206 22 13 5 21 -51 21 -56 0 -73
-8 -50 -22 6 -4 8 -11 5 -16 -4 -5 -8 -17 -10 -26 -21 -88 -61 -203 -69 -200
-5 2 -15 20 -23 41 -11 33 -11 37 3 32 10 -4 6 11 -15 49 -23 41 -27 55 -16
55 8 0 15 2 15 5 0 7 -30 67 -37 75 -6 7 -121 8 -128 2z"/>
<path d="M662 1502 c8 -9 12 -75 13 -190 1 -142 -2 -180 -13 -194 -14 -17 -11
-18 46 -18 58 0 72 6 55 24 -11 11 -12 365 -2 372 23 14 4 22 -50 21 -49 -1
-58 -4 -49 -15z"/>
<path d="M840 1508 c0 -9 1 -4 -10 -51 -7 -34 -7 -37 8 -25 10 7 22 19 28 27
14 18 187 23 176 5 -15 -23 -147 -209 -152 -214 -22 -21 -60 -95 -60 -120 l0
-30 150 0 c83 0 150 3 151 8 0 4 2 22 5 40 4 36 -8 42 -28 14 -11 -16 -27 -19
-101 -20 -48 0 -87 3 -85 8 13 34 129 191 151 205 15 9 26 22 24 28 -2 7 11
21 30 33 29 18 32 23 18 34 -8 7 -15 25 -15 40 l0 27 -145 -1 c-80 0 -145 -4
-145 -8z"/>
<path d="M1320 1510 c0 -4 4 -10 9 -15 6 -6 2 -26 -9 -50 -11 -22 -35 -75 -54
-119 -26 -57 -40 -77 -51 -73 -8 4 -17 2 -20 -3 -4 -6 -2 -10 3 -10 22 0 19
-30 -8 -84 l-29 -56 52 1 c29 0 46 3 40 6 -7 2 -13 11 -13 18 0 27 34 85 49
86 90 5 170 2 168 -6 -2 -5 2 -23 9 -40 8 -19 9 -36 3 -46 -8 -15 -1 -18 47
-21 63 -3 66 -2 53 21 -5 9 -38 94 -73 190 -46 123 -62 179 -56 191 8 15 2 17
-56 16 -35 -1 -64 -3 -64 -6z m84 -177 c13 -40 24 -73 23 -74 -10 -6 -127 -2
-127 4 0 20 65 156 71 149 4 -4 19 -40 33 -79z"/>
<path d="M1624 1508 c-3 -4 -2 -13 2 -20 4 -6 8 -89 9 -182 1 -137 -2 -174
-13 -188 -14 -17 -11 -18 52 -18 61 0 66 2 52 15 -11 12 -15 34 -13 88 2 69 3
72 27 75 22 2 28 -3 42 -42 26 -70 83 -153 129 -186 105 -75 260 -68 310 14
27 44 24 53 -18 53 -42 0 -63 -11 -63 -35 0 -12 4 -12 21 4 17 15 22 16 29 4
13 -22 -39 -51 -92 -52 -87 -1 -149 51 -206 172 -19 41 -39 78 -44 81 -4 3 2
11 15 18 24 13 55 65 51 89 -1 6 -2 23 -3 36 -1 16 -14 35 -37 52 -33 25 -43
27 -140 29 -58 1 -107 -2 -110 -7z m186 -48 c32 -17 31 -82 -2 -117 -15 -16
-30 -21 -57 -20 l-36 2 -2 55 c-3 87 1 97 42 94 19 -2 44 -8 55 -14z"/>
<path d="M1991 1498 c10 -19 14 -282 4 -321 -6 -23 -6 -23 97 -21 140 2 133 1
168 30 43 37 60 75 65 143 3 47 -1 69 -18 102 -35 69 -69 82 -208 84 -113 2
-118 2 -108 -17z m198 -38 c39 -20 54 -72 50 -172 0 -9 -15 -32 -32 -52 -31
-34 -48 -40 -107 -37 l-25 1 3 132 c2 73 8 136 13 139 15 9 73 3 98 -11z"/>
<path d="M2382 1502 c13 -15 16 -328 5 -374 l-7 -28 55 0 c51 0 69 10 45 25
-12 7 -11 363 1 371 23 14 4 22 -50 21 -49 -1 -58 -4 -49 -15z"/>
<path d="M2556 1501 c10 -22 9 -361 -1 -383 -6 -16 -1 -18 34 -18 39 0 50 8
34 24 -9 8 -11 276 -3 276 3 0 52 -68 110 -150 l105 -149 50 -1 c38 0 46 3 37
12 -17 17 -17 379 0 396 9 9 1 11 -33 8 -56 -5 -53 -4 -42 -18 11 -14 14 -268
4 -268 -4 0 -52 64 -108 143 l-101 142 -46 1 c-39 0 -46 -2 -40 -15z"/>
<path d="M462 962 c-21 -3 -22 -5 -9 -20 8 -9 52 -116 97 -237 46 -121 89
-233 95 -249 l13 -29 15 24 c9 13 18 35 21 49 8 38 65 239 82 293 l16 49 55
-159 c30 -87 62 -180 70 -206 13 -39 19 -46 29 -35 11 11 119 308 160 440 8
26 19 50 24 53 17 10 11 33 -7 30 -10 -2 -31 -4 -46 -4 -23 -1 -26 -4 -19 -18
8 -16 -37 -165 -87 -288 -6 -15 -14 -1 -35 65 -15 47 -30 92 -33 100 -31 81
-39 110 -31 124 10 18 11 18 -52 18 -78 0 -83 -1 -73 -14 12 -14 11 -19 -12
-98 -9 -30 -18 -64 -20 -75 -3 -11 -13 -44 -23 -74 l-18 -53 -52 140 c-29 77
-49 147 -46 156 4 11 0 16 -12 17 -11 0 -32 1 -49 2 -16 1 -40 1 -53 -1z"/>
<path d="M1325 961 c-89 -25 -152 -76 -184 -151 -55 -127 -7 -274 109 -336 19
-10 40 -19 45 -20 6 -1 28 -6 50 -11 63 -14 126 -5 188 27 90 47 138 139 126
242 -7 59 -10 64 -68 121 l-60 59 -69 1 c-38 0 -74 -3 -81 -7 -18 -11 -51 -82
-51 -110 0 -15 11 -33 27 -45 29 -24 44 -21 19 4 -43 44 8 111 77 102 48 -7
72 -28 93 -83 22 -57 22 -100 0 -157 -17 -44 -73 -106 -99 -108 -7 0 -21 -2
-32 -4 -31 -6 -87 12 -117 38 -48 41 -72 103 -72 181 0 84 24 138 81 185 45
37 136 54 216 40 44 -8 48 -3 10 12 -62 24 -158 33 -208 20z"/>
<path d="M1712 962 c-18 -3 -20 -6 -9 -16 9 -10 12 -68 11 -237 0 -123 -4
-232 -8 -242 -7 -15 -1 -17 59 -17 60 0 66 2 59 18 -8 18 -13 189 -6 209 4 13
28 13 49 0 6 -4 42 -50 78 -103 54 -77 64 -98 55 -109 -11 -13 -2 -15 64 -15
61 0 75 3 69 13 -33 53 -156 218 -169 225 -12 7 -5 13 31 27 26 11 44 24 41
31 -3 7 4 20 15 30 20 18 27 40 9 29 -6 -4 -10 7 -10 26 0 42 -36 95 -77 114
-30 15 -200 25 -261 17z m214 -76 c28 -32 31 -76 7 -116 -17 -30 -39 -40 -89
-40 l-31 0 2 93 c2 50 3 93 4 95 0 1 20 1 42 -1 31 -3 48 -11 65 -31z"/>
<path d="M2191 962 c-17 -3 -20 -6 -11 -12 18 -11 21 -443 3 -477 l-12 -23
159 0 c178 0 161 -7 173 73 l5 29 -32 -30 c-29 -27 -36 -29 -106 -28 -70 1
-81 4 -79 24 0 4 1 97 1 207 0 110 5 208 10 218 5 9 5 17 1 18 -38 3 -92 3
-112 1z"/>
<path d="M2520 959 c0 -4 7 -12 15 -19 21 -17 19 -30 -5 -25 -25 5 -25 4 0
-42 14 -27 16 -39 8 -44 -9 -6 -8 -12 2 -24 20 -24 21 -313 1 -337 -13 -17 -6
-18 123 -18 75 0 156 5 179 11 61 15 117 57 152 114 27 44 30 56 30 135 0 90
-7 115 -53 177 -27 36 -66 59 -119 69 -46 9 -333 11 -333 3z m305 -49 c62 -24
106 -115 100 -211 -4 -65 -14 -95 -50 -137 -38 -46 -77 -63 -148 -66 -69 -3
-90 1 -81 16 4 6 7 97 7 202 -1 105 1 194 3 197 5 10 144 9 169 -1z"/>
<path d="M2986 487 c3 -10 9 -15 12 -12 3 3 0 11 -7 18 -10 9 -11 8 -5 -6z"/>
<path d="M3050 485 c0 -8 -4 -15 -10 -15 -5 0 -10 5 -10 10 0 6 -4 10 -8 10
-5 0 -9 -7 -9 -15 0 -8 4 -12 9 -9 4 3 8 1 8 -4 0 -20 26 -7 28 15 1 13 0 23
-3 23 -3 0 -5 -7 -5 -15z"/>
</g>
</svg>
